<?xml version="1.0" encoding="UTF-8" standalone="no"?>
<!DOCTYPE svg PUBLIC "-//W3C//DTD SVG 1.1//EN" "http://www.w3.org/Graphics/SVG/1.1/DTD/svg11.dtd">
<svg width="100%" height="100%" viewBox="0 0 512 512" version="1.1" xmlns="http://www.w3.org/2000/svg" xmlns:xlink="http://www.w3.org/1999/xlink" xml:space="preserve" xmlns:serif="http://www.serif.com/" style="fill-rule:evenodd;clip-rule:evenodd;stroke-linecap:round;stroke-linejoin:round;">
    <rect x="0" y="0" width="512" height="512" style="fill:url(#_Linear1);"/>
    <rect x="63" y="0" width="2" height="512" style="fill:url(#_Linear2);"/>
    <rect x="0" y="63" width="512" height="2" style="fill:url(#_Linear3);"/>
    <rect x="127" y="0" width="2" height="512" style="fill:url(#_Linear4);"/>
    <rect x="0" y="127" width="512" height="2" style="fill:url(#_Linear5);"/>
    <rect x="191" y="0" width="2" height="512" style="fill:url(#_Linear6);"/>
    <rect x="0" y="191" width="512" height="2" style="fill:url(#_Linear7);"/>
    <rect x="255" y="0" width="2" height="512" style="fill:url(#_Linear8);"/>
    <rect x="0" y="255" width="512" height="2" style="fill:url(#_Linear9);"/>
    <rect x="319" y="0" width="2" height="512" style="fill:url(#_Linear10);"/>
    <rect x="0" y="319" width="512" height="2" style="fill:url(#_Linear11);"/>
    <rect x="383" y="0" width="2" height="512" style="fill:url(#_Linear12);"/>
    <rect x="0" y="383" width="512" height="2" style="fill:url(#_Linear13);"/>
    <rect x="447" y="0" width="2" height="512" style="fill:url(#_Linear14);"/>
    <rect x="0" y="447" width="512" height="2" style="fill:url(#_Linear15);"/>
    <g>
        <circle cx="120" cy="106" r="15" style="fill:none;stroke:rgb(207,224,255);stroke-opacity:0.35;stroke-width:5px;"/>
        <circle cx="404" cy="398" r="12" style="fill:none;stroke:rgb(207,224,255);stroke-opacity:0.35;stroke-width:5px;"/>
    </g>
    <path d="M396,95L400.9,105.1L411,110L400.9,114.9L396,125L391.1,114.9L381,110L391.1,105.1L396,95Z" style="fill:rgb(207,224,255);fill-opacity:0.45;fill-rule:nonzero;"/>
    <path d="M116,393L119.5,400.5L127,404L119.5,407.5L116,415L112.5,407.5L105,404L112.5,400.5L116,393Z" style="fill:rgb(207,224,255);fill-opacity:0.4;fill-rule:nonzero;"/>
    <circle cx="256" cy="256" r="225" style="fill:url(#_Radial16);"/>
    <g transform="matrix(0.884464,-0.155955,0.158346,0.898024,85.007837,119.439068)">
        <g transform="matrix(1,0,0,1,10,16)">
            <path d="M100,24.126L100,75.874C100,89.189 89.024,100 75.504,100L24.496,100C10.976,100 0,89.189 0,75.874L0,24.126C0,10.811 10.976,0 24.496,0L75.504,0C89.024,0 100,10.811 100,24.126Z" style="fill:rgb(16,19,26);fill-opacity:0.28;"/>
            <path d="M200,24.126L200,75.874C200,89.189 189.024,100 175.504,100L124.496,100C110.976,100 100,89.189 100,75.874L100,24.126C100,10.811 110.976,0 124.496,0L175.504,0C189.024,0 200,10.811 200,24.126Z" style="fill:rgb(16,19,26);fill-opacity:0.28;"/>
            <path d="M100,124.126L100,175.874C100,189.189 89.024,200 75.504,200L24.496,200C10.976,200 0,189.189 0,175.874L0,124.126C0,110.811 10.976,100 24.496,100L75.504,100C89.024,100 100,110.811 100,124.126Z" style="fill:rgb(16,19,26);fill-opacity:0.28;"/>
        </g>
        <path d="M97,27.126L97,72.874C97,86.189 86.024,97 72.504,97L27.496,97C13.976,97 3,86.189 3,72.874L3,27.126C3,13.811 13.976,3 27.496,3L72.504,3C86.024,3 97,13.811 97,27.126Z" style="fill:rgb(240,22,40);stroke:rgb(16,19,26);stroke-width:6px;"/>
        <path d="M88,24.256L88,25.744C88,33.612 81.514,40 73.525,40L26.475,40C18.486,40 12,33.612 12,25.744L12,24.256C12,16.388 18.486,10 26.475,10L73.525,10C81.514,10 88,16.388 88,24.256Z" style="fill:white;fill-opacity:0.28;"/>
        <circle cx="24" cy="70" r="6" style="fill:white;fill-opacity:0.14;"/>
        <path d="M197,27.126L197,72.874C197,86.189 186.024,97 172.504,97L127.496,97C113.976,97 103,86.189 103,72.874L103,27.126C103,13.811 113.976,3 127.496,3L172.504,3C186.024,3 197,13.811 197,27.126Z" style="fill:rgb(255,205,5);stroke:rgb(16,19,26);stroke-width:6px;"/>
        <path d="M188,24.256L188,25.744C188,33.612 181.514,40 173.525,40L126.475,40C118.486,40 112,33.612 112,25.744L112,24.256C112,16.388 118.486,10 126.475,10L173.525,10C181.514,10 188,16.388 188,24.256Z" style="fill:white;fill-opacity:0.28;"/>
        <circle cx="124" cy="70" r="6" style="fill:white;fill-opacity:0.14;"/>
        <path d="M97,127.126L97,172.874C97,186.189 86.024,197 72.504,197L27.496,197C13.976,197 3,186.189 3,172.874L3,127.126C3,113.811 13.976,103 27.496,103L72.504,103C86.024,103 97,113.811 97,127.126Z" style="fill:rgb(23,108,255);stroke:rgb(16,19,26);stroke-width:6px;"/>
        <path d="M88,124.256L88,125.744C88,133.612 81.514,140 73.525,140L26.475,140C18.486,140 12,133.612 12,125.744L12,124.256C12,116.388 18.486,110 26.475,110L73.525,110C81.514,110 88,116.388 88,124.256Z" style="fill:white;fill-opacity:0.28;"/>
        <circle cx="24" cy="170" r="6" style="fill:white;fill-opacity:0.14;"/>
    </g>
    <g transform="matrix(0.884464,-0.155955,0.158346,0.898024,203.923695,240.062864)">
        <g transform="matrix(1,0,0,1,10,16)">
            <path d="M200,24.126L200,75.874C200,89.189 189.024,100 175.504,100L124.496,100C110.976,100 100,89.189 100,75.874L100,24.126C100,10.811 110.976,0 124.496,0L175.504,0C189.024,0 200,10.811 200,24.126Z" style="fill:rgb(16,19,26);fill-opacity:0.28;"/>
            <path d="M100,124.126L100,175.874C100,189.189 89.024,200 75.504,200L24.496,200C10.976,200 0,189.189 0,175.874L0,124.126C0,110.811 10.976,100 24.496,100L75.504,100C89.024,100 100,110.811 100,124.126Z" style="fill:rgb(16,19,26);fill-opacity:0.28;"/>
            <path d="M200,124.126L200,175.874C200,189.189 189.024,200 175.504,200L124.496,200C110.976,200 100,189.189 100,175.874L100,124.126C100,110.811 110.976,100 124.496,100L175.504,100C189.024,100 200,110.811 200,124.126Z" style="fill:rgb(16,19,26);fill-opacity:0.28;"/>
        </g>
        <path d="M197,27.126L197,72.874C197,86.189 186.024,97 172.504,97L127.496,97C113.976,97 103,86.189 103,72.874L103,27.126C103,13.811 113.976,3 127.496,3L172.504,3C186.024,3 197,13.811 197,27.126Z" style="fill:rgb(223,233,248);stroke:rgb(16,19,26);stroke-width:6px;"/>
        <path d="M188,24.256L188,25.744C188,33.612 181.514,40 173.525,40L126.475,40C118.486,40 112,33.612 112,25.744L112,24.256C112,16.388 118.486,10 126.475,10L173.525,10C181.514,10 188,16.388 188,24.256Z" style="fill:white;fill-opacity:0.28;"/>
        <circle cx="124" cy="70" r="6" style="fill:white;fill-opacity:0.14;"/>
        <path d="M97,127.126L97,172.874C97,186.189 86.024,197 72.504,197L27.496,197C13.976,197 3,186.189 3,172.874L3,127.126C3,113.811 13.976,103 27.496,103L72.504,103C86.024,103 97,113.811 97,127.126Z" style="fill:rgb(223,233,248);stroke:rgb(16,19,26);stroke-width:6px;"/>
        <path d="M88,124.256L88,125.744C88,133.612 81.514,140 73.525,140L26.475,140C18.486,140 12,133.612 12,125.744L12,124.256C12,116.388 18.486,110 26.475,110L73.525,110C81.514,110 88,116.388 88,124.256Z" style="fill:white;fill-opacity:0.28;"/>
        <circle cx="24" cy="170" r="6" style="fill:white;fill-opacity:0.14;"/>
        <path d="M197,127.126L197,172.874C197,186.189 186.024,197 172.504,197L127.496,197C113.976,197 103,186.189 103,172.874L103,127.126C103,113.811 113.976,103 127.496,103L172.504,103C186.024,103 197,113.811 197,127.126Z" style="fill:rgb(223,233,248);stroke:rgb(16,19,26);stroke-width:6px;"/>
        <path d="M188,124.256L188,125.744C188,133.612 181.514,140 173.525,140L126.475,140C118.486,140 112,133.612 112,125.744L112,124.256C112,116.388 118.486,110 126.475,110L173.525,110C181.514,110 188,116.388 188,124.256Z" style="fill:white;fill-opacity:0.28;"/>
        <circle cx="124" cy="170" r="6" style="fill:white;fill-opacity:0.14;"/>
    </g>
    <g transform="matrix(0.984808,0.173648,-0.173648,0.984808,246.021822,-55.972252)">
        <g transform="matrix(0.440797,-0,0,0.916255,22.460259,33.969185)">
            <ellipse cx="64" cy="305.5" rx="85" ry="330" style="fill:url(#_Radial17);"/>
        </g>
        <g transform="matrix(0.440797,-0,0,0.916255,22.460259,33.969185)">
            <path d="M66,0L108,0L67.729,276.657L102.729,276.657L33,611L56.809,304.88L23.809,304.88L66,0Z" style="fill:none;fill-rule:nonzero;stroke:white;stroke-opacity:0.2;stroke-width:28px;"/>
        </g>
        <g transform="matrix(0.440797,-0,0,0.916255,22.460259,33.969185)">
            <path d="M66,0L108,0L67.943,275.633L102.943,275.633L33,611L56.809,304.88L23.809,304.88L66,0Z" style="fill:none;fill-rule:nonzero;stroke:white;stroke-opacity:0.35;stroke-width:13px;"/>
        </g>
        <g transform="matrix(0.440797,-0,0,0.916255,22.460259,33.969185)">
            <path d="M66,0L108,0L67.679,276.897L102.679,276.897L33,611L56.809,304.88L23.809,304.88L66,0Z" style="fill:white;fill-rule:nonzero;"/>
        </g>
    </g>
    <defs>
        <linearGradient id="_Linear1" x1="0" y1="0" x2="1" y2="0" gradientUnits="userSpaceOnUse" gradientTransform="matrix(0,512,-512,0,0,0)"><stop offset="0" style="stop-color:rgb(63,131,219);stop-opacity:1"/><stop offset="1" style="stop-color:rgb(34,70,143);stop-opacity:1"/></linearGradient>
        <linearGradient id="_Linear2" x1="0" y1="0" x2="1" y2="0" gradientUnits="userSpaceOnUse" gradientTransform="matrix(0,512,-512,0,63,0)"><stop offset="0" style="stop-color:rgb(207,224,255);stop-opacity:0"/><stop offset="0.5" style="stop-color:rgb(207,224,255);stop-opacity:0.2"/><stop offset="1" style="stop-color:rgb(207,224,255);stop-opacity:0"/></linearGradient>
        <linearGradient id="_Linear3" x1="0" y1="0" x2="1" y2="0" gradientUnits="userSpaceOnUse" gradientTransform="matrix(512,0,0,512,0,63)"><stop offset="0" style="stop-color:rgb(207,224,255);stop-opacity:0"/><stop offset="0.5" style="stop-color:rgb(207,224,255);stop-opacity:0.2"/><stop offset="1" style="stop-color:rgb(207,224,255);stop-opacity:0"/></linearGradient>
        <linearGradient id="_Linear4" x1="0" y1="0" x2="1" y2="0" gradientUnits="userSpaceOnUse" gradientTransform="matrix(0,512,-512,0,127,0)"><stop offset="0" style="stop-color:rgb(207,224,255);stop-opacity:0"/><stop offset="0.5" style="stop-color:rgb(207,224,255);stop-opacity:0.2"/><stop offset="1" style="stop-color:rgb(207,224,255);stop-opacity:0"/></linearGradient>
        <linearGradient id="_Linear5" x1="0" y1="0" x2="1" y2="0" gradientUnits="userSpaceOnUse" gradientTransform="matrix(512,0,0,512,0,127)"><stop offset="0" style="stop-color:rgb(207,224,255);stop-opacity:0"/><stop offset="0.5" style="stop-color:rgb(207,224,255);stop-opacity:0.2"/><stop offset="1" style="stop-color:rgb(207,224,255);stop-opacity:0"/></linearGradient>
        <linearGradient id="_Linear6" x1="0" y1="0" x2="1" y2="0" gradientUnits="userSpaceOnUse" gradientTransform="matrix(0,512,-512,0,191,0)"><stop offset="0" style="stop-color:rgb(207,224,255);stop-opacity:0"/><stop offset="0.5" style="stop-color:rgb(207,224,255);stop-opacity:0.2"/><stop offset="1" style="stop-color:rgb(207,224,255);stop-opacity:0"/></linearGradient>
        <linearGradient id="_Linear7" x1="0" y1="0" x2="1" y2="0" gradientUnits="userSpaceOnUse" gradientTransform="matrix(512,0,0,512,0,191)"><stop offset="0" style="stop-color:rgb(207,224,255);stop-opacity:0"/><stop offset="0.5" style="stop-color:rgb(207,224,255);stop-opacity:0.2"/><stop offset="1" style="stop-color:rgb(207,224,255);stop-opacity:0"/></linearGradient>
        <linearGradient id="_Linear8" x1="0" y1="0" x2="1" y2="0" gradientUnits="userSpaceOnUse" gradientTransform="matrix(0,512,-512,0,255,0)"><stop offset="0" style="stop-color:rgb(207,224,255);stop-opacity:0"/><stop offset="0.5" style="stop-color:rgb(207,224,255);stop-opacity:0.2"/><stop offset="1" style="stop-color:rgb(207,224,255);stop-opacity:0"/></linearGradient>
        <linearGradient id="_Linear9" x1="0" y1="0" x2="1" y2="0" gradientUnits="userSpaceOnUse" gradientTransform="matrix(512,0,0,512,0,255)"><stop offset="0" style="stop-color:rgb(207,224,255);stop-opacity:0"/><stop offset="0.5" style="stop-color:rgb(207,224,255);stop-opacity:0.2"/><stop offset="1" style="stop-color:rgb(207,224,255);stop-opacity:0"/></linearGradient>
        <linearGradient id="_Linear10" x1="0" y1="0" x2="1" y2="0" gradientUnits="userSpaceOnUse" gradientTransform="matrix(0,512,-512,0,319,0)"><stop offset="0" style="stop-color:rgb(207,224,255);stop-opacity:0"/><stop offset="0.5" style="stop-color:rgb(207,224,255);stop-opacity:0.2"/><stop offset="1" style="stop-color:rgb(207,224,255);stop-opacity:0"/></linearGradient>
        <linearGradient id="_Linear11" x1="0" y1="0" x2="1" y2="0" gradientUnits="userSpaceOnUse" gradientTransform="matrix(512,0,0,512,0,319)"><stop offset="0" style="stop-color:rgb(207,224,255);stop-opacity:0"/><stop offset="0.5" style="stop-color:rgb(207,224,255);stop-opacity:0.2"/><stop offset="1" style="stop-color:rgb(207,224,255);stop-opacity:0"/></linearGradient>
        <linearGradient id="_Linear12" x1="0" y1="0" x2="1" y2="0" gradientUnits="userSpaceOnUse" gradientTransform="matrix(0,512,-512,0,383,0)"><stop offset="0" style="stop-color:rgb(207,224,255);stop-opacity:0"/><stop offset="0.5" style="stop-color:rgb(207,224,255);stop-opacity:0.2"/><stop offset="1" style="stop-color:rgb(207,224,255);stop-opacity:0"/></linearGradient>
        <linearGradient id="_Linear13" x1="0" y1="0" x2="1" y2="0" gradientUnits="userSpaceOnUse" gradientTransform="matrix(512,0,0,512,0,383)"><stop offset="0" style="stop-color:rgb(207,224,255);stop-opacity:0"/><stop offset="0.5" style="stop-color:rgb(207,224,255);stop-opacity:0.2"/><stop offset="1" style="stop-color:rgb(207,224,255);stop-opacity:0"/></linearGradient>
        <linearGradient id="_Linear14" x1="0" y1="0" x2="1" y2="0" gradientUnits="userSpaceOnUse" gradientTransform="matrix(0,512,-512,0,447,0)"><stop offset="0" style="stop-color:rgb(207,224,255);stop-opacity:0"/><stop offset="0.5" style="stop-color:rgb(207,224,255);stop-opacity:0.2"/><stop offset="1" style="stop-color:rgb(207,224,255);stop-opacity:0"/></linearGradient>
        <linearGradient id="_Linear15" x1="0" y1="0" x2="1" y2="0" gradientUnits="userSpaceOnUse" gradientTransform="matrix(512,0,0,512,0,447)"><stop offset="0" style="stop-color:rgb(207,224,255);stop-opacity:0"/><stop offset="0.5" style="stop-color:rgb(207,224,255);stop-opacity:0.2"/><stop offset="1" style="stop-color:rgb(207,224,255);stop-opacity:0"/></linearGradient>
        <radialGradient id="_Radial16" cx="0" cy="0" r="1" gradientUnits="userSpaceOnUse" gradientTransform="matrix(225,0,0,225,256,256)"><stop offset="0" style="stop-color:white;stop-opacity:0.35"/><stop offset="1" style="stop-color:white;stop-opacity:0"/></radialGradient>
        <radialGradient id="_Radial17" cx="0" cy="0" r="1" gradientUnits="userSpaceOnUse" gradientTransform="matrix(330,0,0,330,64,305.5)"><stop offset="0" style="stop-color:white;stop-opacity:0.4"/><stop offset="1" style="stop-color:white;stop-opacity:0"/></radialGradient>
    </defs>
</svg>
